<svg width="69" height="57" viewBox="0 0 69 57" fill="none" xmlns="http://www.w3.org/2000/svg">
<rect width="69" height="57" fill="white"/>
<g style="mix-blend-mode:difference">
<path d="M21.9384 28.5C24.2511 28.5 26.1259 26.6257 26.1259 24.3135C26.1259 22.0013 24.2511 20.127 21.9384 20.127C19.6258 20.127 17.751 22.0013 17.751 24.3135C17.751 26.6257 19.6258 28.5 21.9384 28.5Z" fill="#808080"/>
<path d="M21.9384 20.127C24.2511 20.127 26.1259 18.2526 26.1259 15.9405C26.1259 13.6283 24.2511 11.7539 21.9384 11.7539C19.6258 11.7539 17.751 13.6283 17.751 15.9405C17.751 18.2526 19.6258 20.127 21.9384 20.127Z" fill="#808080"/>
<path d="M13.5625 36.8731C15.8751 36.8731 17.7499 34.9987 17.7499 32.6865C17.7499 30.3744 15.8751 28.5 13.5625 28.5C11.2498 28.5 9.375 30.3744 9.375 32.6865C9.375 34.9987 11.2498 36.8731 13.5625 36.8731Z" fill="#808080"/>
<path d="M30.3125 36.8731C32.6251 36.8731 34.4999 34.9987 34.4999 32.6865C34.4999 30.3744 32.6251 28.5 30.3125 28.5C27.9998 28.5 26.125 30.3744 26.125 32.6865C26.125 34.9987 27.9998 36.8731 30.3125 36.8731Z" fill="#808080"/>
<path d="M38.6875 36.8731C41.0001 36.8731 42.8749 34.9987 42.8749 32.6865C42.8749 30.3744 41.0001 28.5 38.6875 28.5C36.3748 28.5 34.5 30.3744 34.5 32.6865C34.5 34.9987 36.3748 36.8731 38.6875 36.8731Z" fill="#808080"/>
<path d="M47.0615 28.5C49.3742 28.5 51.2489 26.6257 51.2489 24.3135C51.2489 22.0013 49.3742 20.127 47.0615 20.127C44.7488 20.127 42.874 22.0013 42.874 24.3135C42.874 26.6257 44.7488 28.5 47.0615 28.5Z" fill="#808080"/>
<path d="M47.0615 20.127C49.3742 20.127 51.2489 18.2526 51.2489 15.9405C51.2489 13.6283 49.3742 11.7539 47.0615 11.7539C44.7488 11.7539 42.874 13.6283 42.874 15.9405C42.874 18.2526 44.7488 20.127 47.0615 20.127Z" fill="#808080"/>
<path d="M63.8125 28.5C66.1251 28.5 67.9999 26.6257 67.9999 24.3135C67.9999 22.0013 66.1251 20.127 63.8125 20.127C61.4998 20.127 59.625 22.0013 59.625 24.3135C59.625 26.6257 61.4998 28.5 63.8125 28.5Z" fill="#808080"/>
<path d="M63.8125 20.127C66.1251 20.127 67.9999 18.2526 67.9999 15.9405C67.9999 13.6283 66.1251 11.7539 63.8125 11.7539C61.4998 11.7539 59.625 13.6283 59.625 15.9405C59.625 18.2526 61.4998 20.127 63.8125 20.127Z" fill="#808080"/>
<path d="M5.18746 28.5C7.50013 28.5 9.37492 26.6257 9.37492 24.3135C9.37492 22.0013 7.50013 20.127 5.18746 20.127C2.87479 20.127 1 22.0013 1 24.3135C1 26.6257 2.87479 28.5 5.18746 28.5Z" fill="#808080"/>
<path d="M5.18746 20.127C7.50013 20.127 9.37492 18.2526 9.37492 15.9405C9.37492 13.6283 7.50013 11.7539 5.18746 11.7539C2.87479 11.7539 1 13.6283 1 15.9405C1 18.2526 2.87479 20.127 5.18746 20.127Z" fill="#808080"/>
<path d="M21.9384 11.7539C24.2511 11.7539 26.1259 9.87957 26.1259 7.5674C26.1259 5.25524 24.2511 3.38086 21.9384 3.38086C19.6258 3.38086 17.751 5.25524 17.751 7.5674C17.751 9.87957 19.6258 11.7539 21.9384 11.7539Z" fill="#808080"/>
<path d="M47.0615 11.7539C49.3742 11.7539 51.2489 9.87957 51.2489 7.5674C51.2489 5.25524 49.3742 3.38086 47.0615 3.38086C44.7488 3.38086 42.874 5.25524 42.874 7.5674C42.874 9.87957 44.7488 11.7539 47.0615 11.7539Z" fill="#808080"/>
<path d="M55.4375 36.8731C57.7501 36.8731 59.6249 34.9987 59.6249 32.6865C59.6249 30.3744 57.7501 28.5 55.4375 28.5C53.1248 28.5 51.25 30.3744 51.25 32.6865C51.25 34.9987 53.1248 36.8731 55.4375 36.8731Z" fill="#808080"/>
<path d="M13.5625 45.2461C15.8751 45.2461 17.7499 43.3718 17.7499 41.0596C17.7499 38.7474 15.8751 36.873 13.5625 36.873C11.2498 36.873 9.375 38.7474 9.375 41.0596C9.375 43.3718 11.2498 45.2461 13.5625 45.2461Z" fill="#808080"/>
<path d="M21.9384 45.2461C24.2511 45.2461 26.1259 43.3718 26.1259 41.0596C26.1259 38.7474 24.2511 36.873 21.9384 36.873C19.6258 36.873 17.751 38.7474 17.751 41.0596C17.751 43.3718 19.6258 45.2461 21.9384 45.2461Z" fill="#808080"/>
<path d="M30.3125 45.2461C32.6251 45.2461 34.4999 43.3718 34.4999 41.0596C34.4999 38.7474 32.6251 36.873 30.3125 36.873C27.9998 36.873 26.125 38.7474 26.125 41.0596C26.125 43.3718 27.9998 45.2461 30.3125 45.2461Z" fill="#808080"/>
<path d="M38.6875 45.2461C41.0001 45.2461 42.8749 43.3718 42.8749 41.0596C42.8749 38.7474 41.0001 36.873 38.6875 36.873C36.3748 36.873 34.5 38.7474 34.5 41.0596C34.5 43.3718 36.3748 45.2461 38.6875 45.2461Z" fill="#808080"/>
<path d="M47.0615 45.2461C49.3742 45.2461 51.2489 43.3718 51.2489 41.0596C51.2489 38.7474 49.3742 36.873 47.0615 36.873C44.7488 36.873 42.874 38.7474 42.874 41.0596C42.874 43.3718 44.7488 45.2461 47.0615 45.2461Z" fill="#808080"/>
<path d="M21.9384 53.6192C24.2511 53.6192 26.1259 51.7448 26.1259 49.4326C26.1259 47.1205 24.2511 45.2461 21.9384 45.2461C19.6258 45.2461 17.751 47.1205 17.751 49.4326C17.751 51.7448 19.6258 53.6192 21.9384 53.6192Z" fill="#808080"/>
<path d="M30.3125 53.6192C32.6251 53.6192 34.4999 51.7448 34.4999 49.4326C34.4999 47.1205 32.6251 45.2461 30.3125 45.2461C27.9998 45.2461 26.125 47.1205 26.125 49.4326C26.125 51.7448 27.9998 53.6192 30.3125 53.6192Z" fill="#808080"/>
<path d="M38.6875 53.6192C41.0001 53.6192 42.8749 51.7448 42.8749 49.4326C42.8749 47.1205 41.0001 45.2461 38.6875 45.2461C36.3748 45.2461 34.5 47.1205 34.5 49.4326C34.5 51.7448 36.3748 53.6192 38.6875 53.6192Z" fill="#808080"/>
<path d="M47.0615 53.6192C49.3742 53.6192 51.2489 51.7448 51.2489 49.4326C51.2489 47.1205 49.3742 45.2461 47.0615 45.2461C44.7488 45.2461 42.874 47.1205 42.874 49.4326C42.874 51.7448 44.7488 53.6192 47.0615 53.6192Z" fill="#808080"/>
<path d="M55.4375 45.2461C57.7501 45.2461 59.6249 43.3718 59.6249 41.0596C59.6249 38.7474 57.7501 36.873 55.4375 36.873C53.1248 36.873 51.25 38.7474 51.25 41.0596C51.25 43.3718 53.1248 45.2461 55.4375 45.2461Z" fill="#808080"/>
</g>
</svg>
