<svg width="45" height="44" viewBox="0 0 45 44" fill="none" xmlns="http://www.w3.org/2000/svg">
<path d="M6.26226 11.4263C9.13757 11.4263 11.4685 9.09231 11.4685 6.21316C11.4685 3.33401 9.13757 1 6.26226 1C3.38696 1 1.05606 3.33401 1.05606 6.21316C1.05606 9.09231 3.38696 11.4263 6.26226 11.4263Z" fill="#B4B4B4"/>
<path d="M16.7728 21.9509C19.6481 21.9509 21.979 19.6169 21.979 16.7377C21.979 13.8586 19.6481 11.5246 16.7728 11.5246C13.8975 11.5246 11.5666 13.8586 11.5666 16.7377C11.5666 19.6169 13.8975 21.9509 16.7728 21.9509Z" fill="#B4B4B4"/>
<path d="M27.2833 32.4754C30.1586 32.4754 32.4895 30.1414 32.4895 27.2623C32.4895 24.3831 30.1586 22.0491 27.2833 22.0491C24.408 22.0491 22.0771 24.3831 22.0771 27.2623C22.0771 30.1414 24.408 32.4754 27.2833 32.4754Z" fill="#B4B4B4"/>
<path d="M37.7938 43C40.6691 43 43 40.666 43 37.7868C43 34.9077 40.6691 32.5737 37.7938 32.5737C34.9185 32.5737 32.5876 34.9077 32.5876 37.7868C32.5876 40.666 34.9185 43 37.7938 43Z" fill="#B4B4B4"/>
<path d="M37.7377 11.4263C40.613 11.4263 42.9439 9.09231 42.9439 6.21316C42.9439 3.33401 40.613 1 37.7377 1C34.8624 1 32.5315 3.33401 32.5315 6.21316C32.5315 9.09231 34.8624 11.4263 37.7377 11.4263Z" fill="#B4B4B4"/>
<path d="M27.2272 21.9509C30.1025 21.9509 32.4334 19.6169 32.4334 16.7377C32.4334 13.8586 30.1025 11.5246 27.2272 11.5246C24.3519 11.5246 22.021 13.8586 22.021 16.7377C22.021 19.6169 24.3519 21.9509 27.2272 21.9509Z" fill="#B4B4B4"/>
<path d="M16.7167 32.4754C19.592 32.4754 21.9229 30.1414 21.9229 27.2623C21.9229 24.3831 19.592 22.0491 16.7167 22.0491C13.8414 22.0491 11.5105 24.3831 11.5105 27.2623C11.5105 30.1414 13.8414 32.4754 16.7167 32.4754Z" fill="#B4B4B4"/>
<path d="M6.20621 43C9.08151 43 11.4124 40.666 11.4124 37.7868C11.4124 34.9077 9.08151 32.5737 6.20621 32.5737C3.3309 32.5737 1 34.9077 1 37.7868C1 40.666 3.3309 43 6.20621 43Z" fill="#B4B4B4"/>
<path d="M6.26226 11.4263C9.13757 11.4263 11.4685 9.09231 11.4685 6.21316C11.4685 3.33401 9.13757 1 6.26226 1C3.38696 1 1.05606 3.33401 1.05606 6.21316C1.05606 9.09231 3.38696 11.4263 6.26226 11.4263Z" stroke="#B3B3B3"/>
<path d="M16.7728 21.9509C19.6481 21.9509 21.979 19.6169 21.979 16.7377C21.979 13.8586 19.6481 11.5246 16.7728 11.5246C13.8975 11.5246 11.5666 13.8586 11.5666 16.7377C11.5666 19.6169 13.8975 21.9509 16.7728 21.9509Z" stroke="#B3B3B3"/>
<path d="M27.2833 32.4754C30.1586 32.4754 32.4895 30.1414 32.4895 27.2623C32.4895 24.3831 30.1586 22.0491 27.2833 22.0491C24.408 22.0491 22.0771 24.3831 22.0771 27.2623C22.0771 30.1414 24.408 32.4754 27.2833 32.4754Z" stroke="#B3B3B3"/>
<path d="M37.7938 43C40.6691 43 43 40.666 43 37.7868C43 34.9077 40.6691 32.5737 37.7938 32.5737C34.9185 32.5737 32.5876 34.9077 32.5876 37.7868C32.5876 40.666 34.9185 43 37.7938 43Z" stroke="#B3B3B3"/>
<path d="M37.7377 11.4263C40.613 11.4263 42.9439 9.09231 42.9439 6.21316C42.9439 3.33401 40.613 1 37.7377 1C34.8624 1 32.5315 3.33401 32.5315 6.21316C32.5315 9.09231 34.8624 11.4263 37.7377 11.4263Z" stroke="#B3B3B3"/>
<path d="M27.2272 21.9509C30.1025 21.9509 32.4334 19.6169 32.4334 16.7377C32.4334 13.8586 30.1025 11.5246 27.2272 11.5246C24.3519 11.5246 22.021 13.8586 22.021 16.7377C22.021 19.6169 24.3519 21.9509 27.2272 21.9509Z" stroke="#B3B3B3"/>
<path d="M16.7167 32.4754C19.592 32.4754 21.9229 30.1414 21.9229 27.2623C21.9229 24.3831 19.592 22.0491 16.7167 22.0491C13.8414 22.0491 11.5105 24.3831 11.5105 27.2623C11.5105 30.1414 13.8414 32.4754 16.7167 32.4754Z" stroke="#B3B3B3"/>
<path d="M6.20621 43C9.08151 43 11.4124 40.666 11.4124 37.7868C11.4124 34.9077 9.08151 32.5737 6.20621 32.5737C3.3309 32.5737 1 34.9077 1 37.7868C1 40.666 3.3309 43 6.20621 43Z" stroke="#B3B3B3"/>
</svg>
