<svg width="1428" height="365" viewBox="0 0 1428 365" fill="none" xmlns="http://www.w3.org/2000/svg">
<g clip-path="url(#clip0_204_82)">
<path d="M187.131 93.5655C187.131 145.24 145.24 187.131 93.5655 187.131C41.8907 187.131 0 145.24 0 93.5655C0 41.8907 41.8907 0 93.5655 0C145.24 0 187.131 41.8907 187.131 93.5655Z" fill="#1E1E1E"/>
<path d="M364.787 93.5655C364.787 145.24 322.897 187.131 271.222 187.131C219.547 187.131 177.656 145.24 177.656 93.5655C177.656 41.8907 219.547 0 271.222 0C322.897 0 364.787 41.8907 364.787 93.5655Z" fill="#1E1E1E"/>
<path d="M542.443 93.5655C542.443 145.24 500.552 187.131 448.877 187.131C397.202 187.131 355.312 145.24 355.312 93.5655C355.312 41.8907 397.202 0 448.877 0C500.552 0 542.443 41.8907 542.443 93.5655Z" fill="#1E1E1E"/>
<path d="M720.099 93.5655C720.099 145.24 678.208 187.131 626.533 187.131C574.858 187.131 532.968 145.24 532.968 93.5655C532.968 41.8907 574.858 0 626.533 0C678.208 0 720.099 41.8907 720.099 93.5655Z" fill="#1E1E1E"/>
<path d="M897.756 93.5655C897.756 145.24 855.865 187.131 804.191 187.131C752.516 187.131 710.625 145.24 710.625 93.5655C710.625 41.8907 752.516 0 804.191 0C855.865 0 897.756 41.8907 897.756 93.5655Z" fill="#1E1E1E"/>
<path d="M1075.41 93.5655C1075.41 145.24 1033.52 187.131 981.846 187.131C930.171 187.131 888.28 145.24 888.28 93.5655C888.28 41.8907 930.171 0 981.846 0C1033.52 0 1075.41 41.8907 1075.41 93.5655Z" fill="#1E1E1E"/>
<path d="M1253.07 93.5655C1253.07 145.24 1211.18 187.131 1159.5 187.131C1107.83 187.131 1065.94 145.24 1065.94 93.5655C1065.94 41.8907 1107.83 0 1159.5 0C1211.18 0 1253.07 41.8907 1253.07 93.5655Z" fill="#1E1E1E"/>
<path d="M1430.74 93.5655C1430.74 145.24 1388.84 187.131 1337.17 187.131C1285.49 187.131 1243.6 145.24 1243.6 93.5655C1243.6 41.8907 1285.49 0 1337.17 0C1388.84 0 1430.74 41.8907 1430.74 93.5655Z" fill="#1E1E1E"/>
<path d="M187.131 271.222C187.131 322.897 145.24 364.787 93.5655 364.787C41.8907 364.787 0 322.897 0 271.222C0 219.547 41.8907 177.656 93.5655 177.656C145.24 177.656 187.131 219.547 187.131 271.222Z" fill="#1E1E1E"/>
<path d="M364.787 271.222C364.787 322.897 322.897 364.787 271.222 364.787C219.547 364.787 177.656 322.897 177.656 271.222C177.656 219.547 219.547 177.656 271.222 177.656C322.897 177.656 364.787 219.547 364.787 271.222Z" fill="#1E1E1E"/>
<path d="M542.443 271.222C542.443 322.897 500.552 364.787 448.877 364.787C397.202 364.787 355.312 322.897 355.312 271.222C355.312 219.547 397.202 177.656 448.877 177.656C500.552 177.656 542.443 219.547 542.443 271.222Z" fill="#1E1E1E"/>
<path d="M720.099 271.222C720.099 322.897 678.208 364.787 626.533 364.787C574.858 364.787 532.968 322.897 532.968 271.222C532.968 219.547 574.858 177.656 626.533 177.656C678.208 177.656 720.099 219.547 720.099 271.222Z" fill="#1E1E1E"/>
<path d="M897.756 271.435C897.756 323.11 855.865 365 804.191 365C752.516 365 710.625 323.11 710.625 271.435C710.625 219.76 752.516 177.869 804.191 177.869C855.865 177.869 897.756 219.76 897.756 271.435Z" fill="#1E1E1E"/>
</g>
<defs>
<clipPath id="clip0_204_82">
<rect width="1428" height="365" fill="white"/>
</clipPath>
</defs>
</svg>
