<svg width="1428" height="365" viewBox="0 0 1428 365" fill="none" xmlns="http://www.w3.org/2000/svg">
<path d="M80.4789 101.193V129.097H68.8721V57.1816H93.3175C101.596 57.1816 107.826 59.1477 112.007 63.0917C116.188 67.0356 118.272 72.4245 118.272 79.2821C118.272 86.1396 116.129 91.4219 111.853 95.3185C107.577 99.2269 101.395 101.169 93.3175 101.169H80.4789V101.193ZM106.452 79.2939C106.452 75.2197 105.315 72.1166 103.041 69.9729C100.767 67.8292 97.1194 66.7632 92.0858 66.7632H80.4789V91.718H92.0858C101.656 91.718 106.452 87.5727 106.452 79.2939Z" fill="#0F0F0F"/>
<path d="M177.656 93.5655C177.656 47.1236 140.007 9.47499 93.5655 9.47499C47.1236 9.47499 9.47499 47.1236 9.47499 93.5655C9.47499 140.007 47.1236 177.656 93.5655 177.656C140.007 177.656 177.656 140.007 177.656 93.5655ZM187.131 93.5655C187.131 145.24 145.24 187.131 93.5655 187.131C41.8907 187.131 0 145.24 0 93.5655C0 41.8907 41.8907 0 93.5655 0C145.24 0 187.131 41.8907 187.131 93.5655Z" fill="#0F0F0F"/>
<path d="M283.598 129.097L265.667 100.376H257.412V129.097H245.805V57.1816H271.162C279.382 57.1816 285.611 59.1832 289.852 63.1864C294.092 67.1896 296.223 72.4956 296.223 79.0807C296.223 84.7183 294.648 89.3374 291.486 92.9379C288.324 96.5384 283.764 98.8479 277.783 99.8665L296.626 129.097H283.586H283.598ZM257.423 92.1207H270.262C279.63 92.1207 284.321 87.9754 284.321 79.6966C284.321 75.7645 283.184 72.6851 280.91 70.4822C278.636 68.2792 275.082 67.1778 270.262 67.1778H257.423V92.1325V92.1207Z" fill="#0F0F0F"/>
<path d="M355.312 93.5655C355.312 47.1236 317.664 9.47499 271.222 9.47499C224.78 9.47499 187.131 47.1236 187.131 93.5655C187.131 140.007 224.78 177.656 271.222 177.656C317.664 177.656 355.312 140.007 355.312 93.5655ZM364.787 93.5655C364.787 145.24 322.897 187.131 271.222 187.131C219.547 187.131 177.656 145.24 177.656 93.5655C177.656 41.8907 219.547 0 271.222 0C322.897 0 364.787 41.8907 364.787 93.5655Z" fill="#0F0F0F"/>
<path d="M532.969 93.5655C532.969 47.1236 495.32 9.47499 448.878 9.47499C402.436 9.47499 364.787 47.1236 364.787 93.5655C364.787 140.007 402.436 177.656 448.878 177.656C495.32 177.656 532.969 140.007 532.969 93.5655ZM542.444 93.5655C542.444 145.24 500.553 187.131 448.878 187.131C397.203 187.131 355.312 145.24 355.312 93.5655C355.312 41.8907 397.203 0 448.878 0C500.553 0 542.444 41.8907 542.444 93.5655Z" fill="#0F0F0F"/>
<path d="M474.756 57.1816V66.55H454.693V129.085H442.979V66.55H423.011V57.1816H474.756Z" fill="#0F0F0F"/>
<path d="M474.756 119.729H423.011V129.097H474.756V119.729Z" fill="#0F0F0F"/>
<path d="M710.625 93.5655C710.625 47.1236 672.976 9.47499 626.534 9.47499C580.092 9.47499 542.444 47.1236 542.444 93.5655C542.444 140.007 580.092 177.656 626.534 177.656C672.976 177.656 710.625 140.007 710.625 93.5655ZM720.1 93.5655C720.1 145.24 678.209 187.131 626.534 187.131C574.859 187.131 532.969 145.24 532.969 93.5655C532.969 41.8907 574.859 0 626.534 0C678.209 0 720.1 41.8907 720.1 93.5655Z" fill="#0F0F0F"/>
<path d="M655.622 129.096H644.016L609.077 76.0239V129.096H597.47V57.2871H609.077L644.016 110.56V57.2871H655.622V129.096Z" fill="#0F0F0F"/>
<path d="M888.28 93.5655C888.28 47.1236 850.631 9.47499 804.19 9.47499C757.748 9.47499 720.099 47.1236 720.099 93.5655C720.099 140.007 757.748 177.656 804.19 177.656C850.631 177.656 888.28 140.007 888.28 93.5655ZM897.755 93.5655C897.755 145.24 855.864 187.131 804.19 187.131C752.515 187.131 710.624 145.24 710.624 93.5655C710.624 41.8907 752.515 0 804.19 0C855.864 0 897.755 41.8907 897.755 93.5655Z" fill="#0F0F0F"/>
<path d="M826.504 63.1979C832.343 67.6749 836.287 73.7626 838.324 81.4255H825.994C824.301 77.0788 821.6 73.6323 817.893 71.0859C814.186 68.5395 809.662 67.2604 804.297 67.2604C800.021 67.2604 796.195 68.3144 792.844 70.4226C789.48 72.5308 786.839 75.5273 784.897 79.4357C782.966 83.3441 781.995 87.904 781.995 93.1389C781.995 98.3739 782.966 102.839 784.897 106.736C786.827 110.644 789.48 113.64 792.844 115.749C796.207 117.857 800.021 118.911 804.297 118.911C809.662 118.911 814.198 117.632 817.893 115.085C821.588 112.539 824.289 109.128 825.994 104.852H838.324C836.287 112.527 832.343 118.591 826.504 123.033C820.665 127.486 813.333 129.701 804.498 129.701C797.712 129.701 791.695 128.161 786.472 125.07C781.237 121.978 777.198 117.667 774.356 112.136C771.501 106.605 770.08 100.269 770.08 93.1389C770.08 86.009 771.501 79.6726 774.356 74.1416C777.21 68.6105 781.249 64.2757 786.472 61.1608C791.695 58.0341 797.712 56.4707 804.498 56.4707C813.322 56.4707 820.653 58.7092 826.504 63.1979Z" fill="#0F0F0F"/>
<path d="M972.893 66.5619V88.3544H999.376V97.3201H972.893V119.622H1002.43V129.097H961.286V57.1816H1002.43V66.55H972.893V66.5619Z" fill="#0F0F0F"/>
<path d="M1065.94 93.5655C1065.94 47.1236 1028.29 9.47499 981.846 9.47499C935.404 9.47499 897.755 47.1236 897.755 93.5655C897.755 140.007 935.404 177.656 981.846 177.656C1028.29 177.656 1065.94 140.007 1065.94 93.5655ZM1075.41 93.5655C1075.41 145.24 1033.52 187.131 981.846 187.131C930.171 187.131 888.28 145.24 888.28 93.5655C888.28 41.8907 930.171 0 981.846 0C1033.52 0 1075.41 41.8907 1075.41 93.5655Z" fill="#0F0F0F"/>
<path d="M1181.26 120.189C1179.51 123.174 1176.88 125.554 1173.38 127.331C1169.89 129.095 1165.63 129.936 1160.6 129.842C1155.58 129.747 1151.35 128.799 1147.52 126.999C1143.68 125.199 1140.64 122.712 1138.39 119.549C1136.14 116.387 1134.88 112.763 1134.62 108.677L1147.04 108.914C1147.33 112.04 1148.62 114.753 1150.92 117.038C1153.21 119.324 1156.34 120.497 1160.27 120.58C1163.8 120.651 1166.55 119.751 1168.53 117.879C1170.49 116.02 1171.51 113.592 1171.57 110.595C1171.62 108.014 1170.94 105.882 1169.55 104.188C1168.15 102.494 1166.41 101.156 1164.32 100.173C1162.24 99.1781 1159.37 98.0411 1155.72 96.7501C1151.27 95.246 1147.65 93.7418 1144.85 92.2732C1142.06 90.7927 1139.71 88.6846 1137.79 85.925C1135.87 83.1772 1134.96 79.5886 1135.03 75.1709C1135.1 71.298 1136.12 67.9225 1138.08 65.0445C1140.03 62.1664 1142.79 59.9516 1146.36 58.4238C1149.92 56.896 1154.01 56.1735 1158.63 56.2564C1165.96 56.3985 1171.75 58.2698 1175.99 61.8822C1180.23 65.4945 1182.61 70.1609 1183.12 75.8696L1170.59 75.6328C1170.16 72.9087 1168.93 70.5636 1166.91 68.5857C1164.87 66.6078 1162.05 65.5893 1158.46 65.5301C1155.2 65.4708 1152.57 66.2525 1150.57 67.8751C1148.57 69.4977 1147.54 71.8783 1147.48 74.9932C1147.43 77.433 1148.07 79.4701 1149.4 81.0927C1150.73 82.7153 1152.42 84.0063 1154.47 84.9538C1156.52 85.9131 1159.34 87.0264 1162.91 88.3174C1167.44 89.8334 1171.12 91.3376 1173.99 92.8536C1176.84 94.3696 1179.25 96.537 1181.2 99.3558C1183.15 102.175 1184.09 105.858 1184 110.406C1183.92 113.935 1183.02 117.192 1181.27 120.189H1181.26Z" fill="#0F0F0F"/>
<path d="M1243.59 93.5655C1243.59 47.1236 1205.94 9.47499 1159.5 9.47499C1113.06 9.47499 1075.41 47.1236 1075.41 93.5655C1075.41 140.007 1113.06 177.656 1159.5 177.656C1205.94 177.656 1243.59 140.007 1243.59 93.5655ZM1253.07 93.5655C1253.07 145.24 1211.18 187.131 1159.5 187.131C1107.83 187.131 1065.94 145.24 1065.94 93.5655C1065.94 41.8907 1107.83 0 1159.5 0C1211.18 0 1253.07 41.8907 1253.07 93.5655Z" fill="#0F0F0F"/>
<path d="M1352.34 113.51H1321.99L1316.49 129.097H1304.07L1330.55 58.3066H1343.9L1370.27 129.097H1357.85L1352.35 113.51H1352.34ZM1349.08 104.556L1337.17 70.9439L1325.26 104.556H1349.08Z" fill="#0F0F0F"/>
<path d="M1421.26 93.5655C1421.26 47.1236 1383.61 9.47499 1337.17 9.47499C1290.73 9.47499 1253.08 47.1236 1253.08 93.5655C1253.08 140.007 1290.73 177.656 1337.17 177.656C1383.61 177.656 1421.26 140.007 1421.26 93.5655ZM1430.73 93.5655C1430.73 145.24 1388.84 187.131 1337.17 187.131C1285.49 187.131 1243.6 145.24 1243.6 93.5655C1243.6 41.8907 1285.49 0 1337.17 0C1388.84 0 1430.73 41.8907 1430.73 93.5655Z" fill="#0F0F0F"/>
<path d="M114.802 234.838V244.206H83.9369V266.508H109.401V275.474H83.9369V306.741H72.3301V234.826H114.802V234.838Z" fill="#0F0F0F"/>
<path d="M177.656 271.222C177.656 224.78 140.007 187.131 93.5655 187.131C47.1236 187.131 9.47499 224.78 9.47499 271.222C9.47499 317.664 47.1236 355.312 93.5655 355.312C140.007 355.312 177.656 317.664 177.656 271.222ZM187.131 271.222C187.131 322.897 145.24 364.787 93.5655 364.787C41.8907 364.787 0 322.897 0 271.222C0 219.547 41.8907 177.656 93.5655 177.656C145.24 177.656 187.131 219.547 187.131 271.222Z" fill="#0F0F0F"/>
<path d="M262.255 244.216V266.009H288.738V274.974H262.255V297.276H291.794V306.751H250.648V234.836H291.794V244.204H262.255V244.216Z" fill="#0F0F0F"/>
<path d="M355.312 271.222C355.312 224.78 317.664 187.131 271.222 187.131C224.78 187.131 187.131 224.78 187.131 271.222C187.131 317.664 224.78 355.312 271.222 355.312C317.664 355.312 355.312 317.664 355.312 271.222ZM364.787 271.222C364.787 322.897 322.897 364.787 271.222 364.787C219.547 364.787 177.656 322.897 177.656 271.222C177.656 219.547 219.547 177.656 271.222 177.656C322.897 177.656 364.787 219.547 364.787 271.222Z" fill="#0F0F0F"/>
<path d="M467.058 238.616C472.459 241.743 476.699 246.101 479.79 251.703C482.882 257.305 484.421 263.642 484.421 270.701C484.421 277.759 482.882 284.096 479.79 289.698C476.699 295.3 472.459 299.682 467.058 302.833C461.658 305.995 455.629 307.57 448.973 307.57C442.317 307.57 436.194 305.995 430.793 302.833C425.392 299.67 421.128 295.3 418.013 289.698C414.887 284.096 413.323 277.759 413.323 270.701C413.323 263.642 414.887 257.305 418.013 251.703C421.14 246.101 425.404 241.743 430.793 238.616C436.194 235.489 442.246 233.926 448.973 233.926C455.7 233.926 461.658 235.489 467.058 238.616ZM436.655 247.878C433.055 249.986 430.248 253.006 428.246 256.938C426.245 260.882 425.238 265.466 425.238 270.689C425.238 275.912 426.245 280.507 428.246 284.439C430.248 288.383 433.055 291.403 436.655 293.5C440.256 295.608 444.366 296.662 448.985 296.662C453.604 296.662 457.595 295.608 461.16 293.5C464.725 291.392 467.508 288.371 469.51 284.439C471.512 280.507 472.518 275.924 472.518 270.689C472.518 265.454 471.512 260.882 469.51 256.938C467.508 252.994 464.725 249.974 461.16 247.878C457.595 245.77 453.533 244.715 448.985 244.715C444.437 244.715 440.256 245.77 436.655 247.878Z" fill="#0F0F0F"/>
<path d="M532.969 271.222C532.969 224.78 495.32 187.131 448.878 187.131C402.436 187.131 364.787 224.78 364.787 271.222C364.787 317.664 402.436 355.312 448.878 355.312C495.32 355.312 532.969 317.664 532.969 271.222ZM542.444 271.222C542.444 322.897 500.553 364.787 448.878 364.787C397.203 364.787 355.312 322.897 355.312 271.222C355.312 219.547 397.203 177.656 448.878 177.656C500.553 177.656 542.444 219.547 542.444 271.222Z" fill="#0F0F0F"/>
<path d="M655.622 306.752H644.016L609.077 253.68V306.752H597.47V234.943H609.077L644.016 288.217V234.943H655.622V306.752Z" fill="#0F0F0F"/>
<path d="M710.625 271.222C710.625 224.78 672.976 187.131 626.534 187.131C580.092 187.131 542.444 224.78 542.444 271.222C542.444 317.664 580.092 355.312 626.534 355.312C672.976 355.312 710.625 317.664 710.625 271.222ZM720.1 271.222C720.1 322.897 678.209 364.787 626.534 364.787C574.859 364.787 532.969 322.897 532.969 271.222C532.969 219.547 574.859 177.656 626.534 177.656C678.209 177.656 720.1 219.547 720.1 271.222Z" fill="#0F0F0F"/>
<path d="M819.375 291.167H789.019L783.524 306.753H771.1L797.582 235.963H810.93L837.306 306.753H824.882L819.387 291.167H819.375ZM816.118 282.213L804.203 248.6L792.288 282.213H816.118Z" fill="#0F0F0F"/>
<path d="M888.28 271.435C888.28 224.993 850.631 187.344 804.19 187.344C757.748 187.344 720.099 224.993 720.099 271.435C720.099 317.877 757.748 355.525 804.19 355.525C850.631 355.525 888.28 317.877 888.28 271.435ZM897.755 271.435C897.755 323.11 855.864 365 804.19 365C752.515 365 710.624 323.11 710.624 271.435C710.624 219.76 752.515 177.869 804.19 177.869C855.864 177.869 897.755 219.76 897.755 271.435Z" fill="#0F0F0F"/>
</svg>
